<?xml version="1.0" encoding="utf-8"?>
<!-- Generator: Adobe Illustrator 25.0.0, SVG Export Plug-In . SVG Version: 6.00 Build 0)  -->
<svg version="1.1" id="Слой_1" xmlns="http://www.w3.org/2000/svg" xmlns:xlink="http://www.w3.org/1999/xlink" x="0px" y="0px"
	 viewBox="0 0 180 180" style="enable-background:new 0 0 180 180;" xml:space="preserve">
<style type="text/css">
	.st0{fill:#FF7F0B;}
	.st1{fill:#FFFFFF;}
</style>
<circle id="circle" class="st0" cx="90" cy="90" r="90"/>
<path id="xead" class="st1" d="M58.9,20.7c0.7,0.2,1.4,0.9,3.5,8.9c1.2,4.4,1.2,5.5,2.3,7.1c1.6,2.2,2.9,2,5.9,4.1
	c3.7,2.6,5.7,5.7,8.6,9.9c1.2,1.8,2.7,4.3,4.1,7.4c4.1,0.2,10.5,1.1,17.6,4.3c5.4,2.4,9.4,5.4,12.1,7.8c2.3-1.5,5.6-3.5,9.7-5.4
	c4.5-2.1,8.1-3.1,13.9-4.8c3.1-0.9,6.5-1.7,13.3-3.3c9.5-2.2,11.2-2.4,12.1-1.4c1.5,1.7-0.2,5.6-2.5,10.6c-1,2.1-3,6.2-7.5,12.3
	c-3,4-5.2,7-8.9,10.5c-2.9,2.7-7.4,6.4-13.7,9.6c0.2,6.7-0.5,15.7-4,25.4c-1.6,4.5-4.1,11.4-10.2,18.3c-1.2,1.3-3.8,4.1-7.7,6.9
	c-5.4,3.9-10.1,5.6-16.6,8c-4.5,1.6-7.5,2.3-10.7,2.7c-2,0.2-3.6,0.2-4.8,0.2c-0.2,0-0.6,0.1-0.6-0.1c-0.2-0.4,4.1-1.4,6.1-4.3
	c2-2.9,1-6.6,0.6-8.3c-1.1-4.6-4.2-7.2-5.1-8c-4.1-3.5-8.7-3.7-10.6-3.8c-3.2-0.1-5.8,0.5-7.4,1.1c-2.3,0.6-5.1,1-8.4,0.9
	c-5.7-0.3-9.7-2.2-10.6-2.7c-2.2-1.1-3.6-2.2-6.4-4.5c-1.3-1.1-1.9-1.6-2.4-2.5c-0.3-0.4-2.1-3.7-0.3-6.3c1.3-1.9,3.6-2.1,4-2.2
	c1.5-0.1,3.6-0.4,5.9-1.3c1.6-0.6,3-1.4,4-2.1c0-3.2,0-6.5,0-9.7c-1.2-1.7-3.1-4.9-2.6-8.6c0.2-1.9,1-3.5,1.8-5.3
	c0.5-1.1,1.2-2.7,2.6-4.5c1.9-2.5,3-2.5,4.1-4c1-1.4,2-3.8,1.2-8.2c-1.3-5.9-2-11-2.4-14.9c-0.4-3.8-0.8-7.5-0.6-12.5
	c0.2-4.6,0.7-7.9,1.3-11.2c1.4-8.4,2.9-10.8,3.9-12.3C54.5,23.6,57,20.2,58.9,20.7z"/>
<path id="weka" class="st0" d="M67.4,125.3c0.1-0.2,0.6-0.1,1.5-0.1c0.5,0,0.8,0,1,0c0.9,0,11.6,0.9,26.1,2c0.7,0,1.3,0,1.7,0
	c0.8,0.1,1.2,0.1,1.3,0.1c0.7,0.1,0.9,0.2,1,0.1c0.3-0.2,0.3-0.6,0.2-1.8c0-0.8,0-1.4,0-1.7c-0.1-2.6-0.2-8.9,0.2-9.6
	c0-0.1,0.2-0.4,0.4-0.4c0.2,0,0.3,0.3,0.4,0.5c0.3,4.3,0.6,8.8,0.7,13.3c0,0.9,0,1.8,0.1,2.7c-1.5-0.2-3-0.3-4.4-0.5
	c-10-1.2-19.8-2.6-29.4-4.2c-0.2,0-0.4-0.1-0.6-0.1C67.4,125.4,67.4,125.3,67.4,125.3z"/>
<path id="g1" class="st0" d="M62.7,115c2.8-2.3,7.6-5.7,14.5-7.7c5.5-1.6,10.3-1.8,13.6-1.6c0,0.1,0,0.2,0,0.3
	c-0.6,0-1.2,0.1-1.9,0.1c-0.4-0.1-1-0.1-1.7,0c-0.5,0.1-1.5,0.3-2.5,1c-0.3,0.2-0.5,0.4-1.1,1.3c-1.2,1.6-1.5,2-1.8,2.4
	c-0.6,0.7-1.5,1.6-3.2,2.3c-0.9,0.3-2.2,0.7-3.9,0.6c-1.2,0-2.2-0.1-3.3-0.7c-0.5-0.3-0.9-0.6-1.6-0.7c-0.6-0.1-1.2,0-1.7,0.1
	c-0.3,0.1-1,0.2-1.8,0.5c-1.5,0.6-2.7,1.5-3.4,2.2C62.8,115.1,62.8,115,62.7,115z"/>
<path id="g2" class="st0" d="M53.2,89.3c0.3-0.2,3.4,2.6,4.5,6.4c1.8,5.9-1.5,12.3-1.6,12.3c0,0,0.1-0.4,0.1-1.1
	c0-0.1,0-0.7-0.1-1.1c-0.2-0.8-1-1-1.8-1.8c-1-0.9-1.3-2-1.5-2.4c-0.2-0.6-0.7-2,0-3.5c0.4-0.9,1.1-1.4,1.5-1.7c0-1,0-2.6-0.4-4.3
	C53.5,90.4,53,89.4,53.2,89.3z"/>
<path id="pew" class="st0" d="M83.2,89.5c0.5-0.5,1-1,1.6-1.5c0.8-0.8,1.7-1.7,2.5-2.6c1.5-1.5,3-3,4.4-4.5c0.7-0.7,1.5-1.4,2.3-2.1
	c2.5-2.2,4.9-4,7.3-5.6c-0.8-0.4-1.5-0.8-2.2-1.2c-3,2.9-6.1,5.9-9.1,8.8c-1.6,1.5-3.3,3.2-5,5.2c-0.8,1-1.6,2-2.3,2.9
	c-0.3,0.2-0.3,0.6-0.1,0.7C82.7,89.7,83,89.7,83.2,89.5z"/>
<path id="nose" class="st0" d="M34.6,119.9c0.3,0,2.2,0.4,3.1,2c0.9,1.7,0.5,4-1.1,5.5c-0.2,0.2-1.1,1-2.5,1.1
	c-0.9,0-1.5-0.3-1.9-0.4c-0.3-0.2-0.8-0.6-1.3-1.2c-0.5-0.6-0.8-1.2-0.9-1.7c-0.1-0.5-0.1-1.3,0.2-2.3c0.2-0.5,0.5-1.5,1.5-2.3
	C32.9,119.8,34.2,119.9,34.6,119.9z"/>
</svg>
